<?xml version="1.0" encoding="UTF-8"?>
<svg version="1.1" viewBox="0 0 2048 696" width="1280" height="1280" xmlns="http://www.w3.org/2000/svg">
<path transform="translate(0)" d="m0 0h2048v696h-2048z" fill="#FDFDFD"/>
<path transform="translate(1661,300)" d="m0 0 17 1 16 4 17 8 12 9 10 10 9 14 5 11 4 14 1 6v24l-4 17-6 14-9 13-13 13-14 9-15 6-13 3-8 1h-13l-20-4-13-5-12-7-13-11-10-13-8-16-4-14-1-6v-24l4-17 5-12 7-12 11-12 9-8 14-8 18-6z" fill="#2D304C"/>
<path transform="translate(750,213)" d="m0 0h25l20 4 19 7 15 8 16 12 11 11-2 4-21 21-4-2-9-10-10-8-17-9-13-4-12-2h-12l-16 4-10 5-7 6-6 12-1 4v16l4 9 4 6 9 6 11 5 18 6 31 9 19 7 14 7 12 9 8 9 8 16 3 15v14l-4 16-7 14-11 12-10 8-16 8-15 5-17 3-9 1h-18l-22-4-15-5-16-8-11-7-10-8-10-10 2-4 21-21 4 1 6 8 10 9 14 8 13 5 14 3h22l18-4 13-7 8-8 5-10 2-10-1-12-6-12-5-5-9-6-15-6-32-10-17-5-20-8-14-9-8-7-9-14-4-11-2-13 1-15 4-14 5-10 8-10 10-9 12-7 18-6z" fill="#2D304C"/>
<path transform="translate(1238,300)" d="m0 0 19 1 17 4 14 6 13 10 7 8 8 14 6 16 3 13 1 9v21h-134l4 16 4 8 8 9 11 7 12 4 5 1h15l12-3 10-5 9-7 5-6 4 2 16 15 5 4-2 4-11 11-10 6-12 5-21 4h-20l-17-3-16-5-12-7-11-9-8-9-7-11-7-19-2-11v-28l4-18 5-13 9-14 13-13 13-8 16-6 9-2z" fill="#2D304C"/>
<path transform="translate(885,304)" d="m0 0h36l14 42 14 41 11 32 2-2 15-45 14-41 9-27h26l4 10 16 48 14 41 5 15v3h2l2-9 16-47 20-59 1-2h35l-1 5-20 53-21 55-19 50-3 6h-22l-19-49-20-52-2-7h-2l-1 5-19 50-18 47-3 6h-22l-18-47-20-52-19-50-7-18z" fill="#2D304C"/>
<path transform="translate(261,369)" d="m0 0 4 1 12 13 17 16 140 140-1 4-24 24-7-6-59-59-7 6-59 59-8-6-19-19 2-4 62-62-2-4-76-76 2-4z" fill="#2D304C"/>
<path transform="translate(541,249)" d="m0 0 7 6 20 20-6 7-59 59 6 7 59 59-6 7-20 20-8-6-14-15-10-9-34-34-4 2-76 76-7-6-20-20 6-7z" fill="#2D304C"/>
<path transform="translate(275,117)" d="m0 0 4 2 62 62 4-2 62-62 4 1 4 4v2h2v2l4 2 11 12 2 4-64 64 2 4 76 76-2 4-23 23-4-2-169-169 2-4z" fill="#2D304C"/>
<path transform="translate(288,236)" d="m0 0 4 2 23 23-2 4-169 169-4-2-23-23 2-4 62-62-2-4-62-62 2-4 24-24 6 5 7 8 52 52 4-2z" fill="#2D304C"/>
<path transform="translate(1774,304)" d="m0 0h40l7 10 30 45 2 1 2-5 29-44 5-7h40l-2 5-11 15-12 17-14 20-13 18-6 9 4 7 13 18 13 19 11 15 14 20 3 4v2h-40l-26-39-11-16-9 12-18 27-11 16h-40l2-5 9-12 12-17 13-18 12-17 10-14-1-4-13-19-11-15-12-17-13-18-8-12z" fill="#2D304C"/>
<path transform="translate(1371,250)" d="m0 0h35v54h44v29h-44l1 81 3 16 6 9 10 6 3 1h16l5-1v27l-9 4-6 1h-11l-16-3-14-7-9-8-8-13-4-10-2-11v-92h-20l-1-1v-28l20-1z" fill="#2D304C"/>
<path transform="translate(1657,330)" d="m0 0h14l12 3 11 6 11 11 6 10 4 11 2 10v16l-4 16-6 12-11 12-10 6-10 4-5 1h-14l-14-4-11-7-8-8-7-11-5-15-1-6v-17l4-16 7-13 6-7 11-8 12-5z" fill="#FDFDFD"/>
<path transform="translate(1506,209)" d="m0 0h24l1 1v263h-36v-263z" fill="#2D304C"/>
<path transform="translate(1233,330)" d="m0 0h17l12 3 11 6 6 5 7 11 3 12v5h-96l1-11 7-14 7-7 10-6z" fill="#FDFDFD"/>
</svg>
